# xmcd
#
# Track frame offsets: 
#        182
#        11957
#        24857
#        39257
#        53645
#        64820
#        76470
#        90082
#        105345
#        115157
#        129220
#        143282
#        158770
#        173220
#        189545
#        203120
#        215095
#        226670
#        246232
#        261482
#
# Disc length: 3646 seconds
#
# Revision: 1
# Processed by: cddbd v1.5.2PL0 Copyright (c) Steve Scherf et al.
# Submitted via: ExactAudioCopy v0.99pb5
#
DISCID=fa0e3c14
DTITLE=Various Artist - Easy Listening Country 5
DYEAR=1900
DGENRE=Country
TTITLE0=Jim Reeves - Welcome To My World
TTITLE1=The Browns - The Three Bells
TTITLE2=Glen Campbell - My Elusive Dreams
TTITLE3=Red Foley - Midnight
TTITLE4=Sonny James - Take Good Care Of Her
TTITLE5=George Jones - She Thinks I Still Care
TTITLE6=Patsy Cline - She's Got You
TTITLE7=John Schneider - What's A Memory Like You (Doing In A Love Lik
TTITLE7=e This)
TTITLE8=Eddy Arnold - What's He Doing In My World
TTITLE9=Grant and Forsyth - Only A Fool (Breaks His Own Heart)
TTITLE10=Glen Campbell - Bring Back My Yesterday
TTITLE11=Grant and Forsyth - Why Not Me
TTITLE12=Eddy Arnold - It's No Secret
TTITLE13=Rita Coolidge - We're All Alone
TTITLE14=Willie Nelson - Both Sides Now
TTITLE15=Don Gibson - I Can't Stop Lovin' You
TTITLE16=Bobby Gentry - All I Have To Do Is Dream
TTITLE17=Lynn Anderson - Under The Boardwalk
TTITLE18=Willie Nelson - Everybody's Talking
TTITLE19=Freddy Fender - Vaya Con Dios
EXTD=
EXTT0=
EXTT1=
EXTT2=
EXTT3=
EXTT4=
EXTT5=
EXTT6=
EXTT7=
EXTT8=
EXTT9=
EXTT10=
EXTT11=
EXTT12=
EXTT13=
EXTT14=
EXTT15=
EXTT16=
EXTT17=
EXTT18=
EXTT19=
PLAYORDER=
